<svg xmlns="http://www.w3.org/2000/svg" width="805" height="600"><rect width="805" height="600" x="0" y="0" fill="#FFFFFF" id="backgorund"/><g id="viz"><clipPath id="serieClipPath"><rect x="-50" y="-10" width="805" height="600"/></clipPath><g transform="translate(0,0)"><g transform="translate(50,10)" clip-path="url(#serieClipPath)"><g id="axis"><g transform="translate(0,570)" fill="none" font-size="10" font-family="sans-serif" text-anchor="middle"><path class="domain" stroke="currentColor" d="M0.5,6V0.5H740.5V6"/><g class="tick" opacity="1" transform="translate(0.5,0)"><line stroke="currentColor" y2="6"/><text fill="currentColor" y="9" dy="0.71em">Jan 03</text></g><g class="tick" opacity="1" transform="translate(57.42307692307693,0)"><line stroke="currentColor" y2="6"/><text fill="currentColor" y="9" dy="0.71em">Jan 10</text></g><g class="tick" opacity="1" transform="translate(114.34615384615385,0)"><line stroke="currentColor" y2="6"/><text fill="currentColor" y="9" dy="0.71em">Jan 17</text></g><g class="tick" opacity="1" transform="translate(171.26923076923077,0)"><line stroke="currentColor" y2="6"/><text fill="currentColor" y="9" dy="0.71em">Jan 24</text></g><g class="tick" opacity="1" transform="translate(228.1923076923077,0)"><line stroke="currentColor" y2="6"/><text fill="currentColor" y="9" dy="0.71em">Jan 31</text></g><g class="tick" opacity="1" transform="translate(285.11538461538464,0)"><line stroke="currentColor" y2="6"/><text fill="currentColor" y="9" dy="0.71em">Feb 07</text></g><g class="tick" opacity="1" transform="translate(342.03846153846155,0)"><line stroke="currentColor" y2="6"/><text fill="currentColor" y="9" dy="0.71em">Feb 14</text></g><g class="tick" opacity="1" transform="translate(398.96153846153845,0)"><line stroke="currentColor" y2="6"/><text fill="currentColor" y="9" dy="0.71em">Feb 21</text></g><g class="tick" opacity="1" transform="translate(455.8846153846154,0)"><line stroke="currentColor" y2="6"/><text fill="currentColor" y="9" dy="0.71em">Feb 28</text></g><g class="tick" opacity="1" transform="translate(512.8076923076923,0)"><line stroke="currentColor" y2="6"/><text fill="currentColor" y="9" dy="0.71em">Mar 06</text></g><g class="tick" opacity="1" transform="translate(569.7307692307693,0)"><line stroke="currentColor" y2="6"/><text fill="currentColor" y="9" dy="0.71em">Mar 13</text></g><g class="tick" opacity="1" transform="translate(626.6538461538462,0)"><line stroke="currentColor" y2="6"/><text fill="currentColor" y="9" dy="0.71em">Mar 20</text></g><g class="tick" opacity="1" transform="translate(683.5769230769231,0)"><line stroke="currentColor" y2="6"/><text fill="currentColor" y="9" dy="0.71em">Mar 27</text></g><g class="tick" opacity="1" transform="translate(740.5,0)"><line stroke="currentColor" y2="6"/><text fill="currentColor" y="9" dy="0.71em">Apr 03</text></g><text x="740" dy="-5" text-anchor="end" style="font-family: Arial, sans-serif; font-size: 12px; fill: rgb(123, 123, 123); font-weight: bold;">日期</text></g><g transform="translate(0,0)" fill="none" font-size="10" font-family="sans-serif" text-anchor="end"><path class="domain" stroke="currentColor" d="M0.5,570.5V0.5"/><g class="tick" opacity="1" transform="translate(0,570.5)"><line stroke="currentColor" x2="-6"/><text fill="currentColor" x="-9" dy="0.32em">440</text></g><g class="tick" opacity="1" transform="translate(0,518.6818181818181)"><line stroke="currentColor" x2="-6"/><text fill="currentColor" x="-9" dy="0.32em">450</text></g><g class="tick" opacity="1" transform="translate(0,466.8636363636363)"><line stroke="currentColor" x2="-6"/><text fill="currentColor" x="-9" dy="0.32em">460</text></g><g class="tick" opacity="1" transform="translate(0,415.04545454545456)"><line stroke="currentColor" x2="-6"/><text fill="currentColor" x="-9" dy="0.32em">470</text></g><g class="tick" opacity="1" transform="translate(0,363.22727272727275)"><line stroke="currentColor" x2="-6"/><text fill="currentColor" x="-9" dy="0.32em">480</text></g><g class="tick" opacity="1" transform="translate(0,311.4090909090909)"><line stroke="currentColor" x2="-6"/><text fill="currentColor" x="-9" dy="0.32em">490</text></g><g class="tick" opacity="1" transform="translate(0,259.5909090909091)"><line stroke="currentColor" x2="-6"/><text fill="currentColor" x="-9" dy="0.32em">500</text></g><g class="tick" opacity="1" transform="translate(0,207.77272727272728)"><line stroke="currentColor" x2="-6"/><text fill="currentColor" x="-9" dy="0.32em">510</text></g><g class="tick" opacity="1" transform="translate(0,155.95454545454544)"><line stroke="currentColor" x2="-6"/><text fill="currentColor" x="-9" dy="0.32em">520</text></g><g class="tick" opacity="1" transform="translate(0,104.13636363636361)"><line stroke="currentColor" x2="-6"/><text fill="currentColor" x="-9" dy="0.32em">530</text></g><g class="tick" opacity="1" transform="translate(0,52.318181818181834)"><line stroke="currentColor" x2="-6"/><text fill="currentColor" x="-9" dy="0.32em">540</text></g><g class="tick" opacity="1" transform="translate(0,0.5)"><line stroke="currentColor" x2="-6"/><text fill="currentColor" x="-9" dy="0.32em">550</text></g><text x="4" text-anchor="start" dominant-baseline="hanging" style="font-family: Arial, sans-serif; font-size: 12px; fill: rgb(123, 123, 123); font-weight: bold;">開盤價</text></g></g><g id="viz"><g><path d="M0,538.9090909090909C4.065934065934067,538.9090909090909,4.065934065934067,520.7727272727273,8.131868131868133,520.7727272727273C12.1978021978022,520.7727272727273,12.1978021978022,471.54545454545456,16.263736263736266,471.54545454545456C20.329670329670332,471.54545454545456,20.329670329670332,492.27272727272725,24.395604395604398,492.27272727272725C36.5934065934066,492.27272727272725,36.5934065934066,424.90909090909093,48.791208791208796,424.90909090909093C52.85714285714286,424.90909090909093,52.85714285714286,331.6363636363636,56.92307692307693,331.6363636363636C60.98901098901099,331.6363636363636,60.98901098901099,326.4545454545455,65.05494505494507,326.4545454545455C69.12087912087912,326.4545454545455,69.12087912087912,323.8636363636363,73.18681318681318,323.8636363636363C77.25274725274724,323.8636363636363,77.25274725274724,222.81818181818178,81.31868131868131,222.81818181818178C93.5164835164835,222.81818181818178,93.5164835164835,228,105.71428571428571,228C109.78021978021978,228,109.78021978021978,238.36363636363637,113.84615384615385,238.36363636363637C166.7032967032967,238.36363636363637,166.7032967032967,41.45454545454547,219.56043956043956,41.45454545454547C223.62637362637363,41.45454545454547,223.62637362637363,67.36363636363636,227.6923076923077,67.36363636363636C231.75824175824175,67.36363636363636,231.75824175824175,93.27272727272731,235.8241758241758,93.27272727272731C239.89010989010987,93.27272727272731,239.89010989010987,62.1818181818182,243.95604395604394,62.1818181818182C248.02197802197801,62.1818181818182,248.02197802197801,51.818181818181834,252.0879120879121,51.818181818181834C264.2857142857143,51.818181818181834,264.2857142857143,93.27272727272731,276.4835164835165,93.27272727272731C280.54945054945057,93.27272727272731,280.54945054945057,134.72727272727272,284.61538461538464,134.72727272727272C288.68131868131866,134.72727272727272,288.68131868131866,62.1818181818182,292.74725274725273,62.1818181818182C296.8131868131868,62.1818181818182,296.8131868131868,51.818181818181834,300.8791208791209,51.818181818181834C304.94505494505495,51.818181818181834,304.94505494505495,31.0909090909091,309.010989010989,31.0909090909091C321.20879120879124,31.0909090909091,321.20879120879124,31.0909090909091,333.4065934065934,31.0909090909091C337.4725274725275,31.0909090909091,337.4725274725275,31.0909090909091,341.53846153846155,31.0909090909091C345.60439560439556,31.0909090909091,345.60439560439556,124.36363636363635,349.67032967032964,124.36363636363635C353.7362637362637,124.36363636363635,353.7362637362637,113.99999999999997,357.8021978021978,113.99999999999997C361.86813186813185,113.99999999999997,361.86813186813185,134.72727272727272,365.9340659340659,134.72727272727272C378.13186813186815,134.72727272727272,378.13186813186815,186.54545454545453,390.32967032967036,186.54545454545453C394.39560439560444,186.54545454545453,394.39560439560444,181.3636363636364,398.46153846153845,181.3636363636364C402.5274725274726,181.3636363636364,402.5274725274726,228,406.59340659340666,228C410.6593406593407,228,410.6593406593407,196.9090909090909,414.72527472527474,196.9090909090909C418.79120879120876,196.9090909090909,418.79120879120876,134.72727272727272,422.85714285714283,134.72727272727272C447.2527472527472,134.72727272727272,447.2527472527472,238.36363636363637,471.6483516483516,238.36363636363637C475.71428571428567,238.36363636363637,475.71428571428567,160.63636363636365,479.7802197802198,160.63636363636365C483.8461538461538,160.63636363636365,483.8461538461538,134.72727272727272,487.9120879120879,134.72727272727272C500.1098901098901,134.72727272727272,500.1098901098901,155.45454545454544,512.3076923076923,155.45454545454544C516.3736263736264,155.45454545454544,516.3736263736264,150.27272727272728,520.4395604395605,150.27272727272728C524.5054945054945,150.27272727272728,524.5054945054945,150.27272727272728,528.5714285714286,150.27272727272728C532.6373626373627,150.27272727272728,532.6373626373627,129.54545454545456,536.7032967032967,129.54545454545456C540.7692307692307,129.54545454545456,540.7692307692307,181.3636363636364,544.8351648351648,181.3636363636364C557.032967032967,181.3636363636364,557.032967032967,191.7272727272727,569.2307692307693,191.7272727272727C573.2967032967033,191.7272727272727,573.2967032967033,202.09090909090907,577.3626373626373,202.09090909090907C581.4285714285713,202.09090909090907,581.4285714285713,181.3636363636364,585.4945054945055,181.3636363636364C589.5604395604396,181.3636363636364,589.5604395604396,233.18181818181816,593.6263736263736,233.18181818181816C597.6923076923076,233.18181818181816,597.6923076923076,176.1818181818182,601.7582417582418,176.1818181818182C613.9560439560439,176.1818181818182,613.9560439560439,171.00000000000003,626.1538461538462,171.00000000000003C630.2197802197802,171.00000000000003,630.2197802197802,181.3636363636364,634.2857142857142,181.3636363636364C638.3516483516484,181.3636363636364,638.3516483516484,134.72727272727272,642.4175824175825,134.72727272727272C646.4835164835165,134.72727272727272,646.4835164835165,113.99999999999997,650.5494505494505,113.99999999999997C654.6153846153845,113.99999999999997,654.6153846153845,72.54545454545458,658.6813186813187,72.54545454545458C670.8791208791208,72.54545454545458,670.8791208791208,88.0909090909091,683.0769230769231,88.0909090909091C687.1428571428571,88.0909090909091,687.1428571428571,129.54545454545456,691.2087912087912,129.54545454545456C695.2747252747253,129.54545454545456,695.2747252747253,88.0909090909091,699.3406593406593,88.0909090909091C703.4065934065934,88.0909090909091,703.4065934065934,72.54545454545458,707.4725274725275,72.54545454545458C711.5384615384615,72.54545454545458,711.5384615384615,62.1818181818182,715.6043956043956,62.1818181818182" stroke="#1f77b4" fill="none"/><text font-family="sans-serif" font-size="10" class="labels" x="309.010989010989" y="31.0909090909091" dx="0" dy="-4" text-anchor="middle"/></g></g></g><text y="4" x="4" style="font-family: Arial, sans-serif; font-size: 12px; fill: black; font-weight: bold; dominant-baseline: hanging;"/></g><g id="grid"><rect x="0" y="0" width="805" height="600" fill="none" stroke="#ccc"/></g></g></svg>